<svg width="21" height="21" viewBox="0 0 21 21" fill="none" xmlns="http://www.w3.org/2000/svg">
<path d="M10.5 0.875C8.59636 0.875 6.73546 1.4395 5.15264 2.4971C3.56982 3.55471 2.33616 5.05793 1.60766 6.81667C0.87917 8.57541 0.688563 10.5107 1.05995 12.3777C1.43133 14.2448 2.34802 15.9598 3.6941 17.3059C5.04018 18.652 6.75519 19.5687 8.62226 19.9401C10.4893 20.3114 12.4246 20.1208 14.1833 19.3923C15.9421 18.6638 17.4453 17.4302 18.5029 15.8474C19.5605 14.2645 20.125 12.4036 20.125 10.5C20.122 7.94822 19.107 5.50181 17.3026 3.69742C15.4982 1.89304 13.0518 0.87801 10.5 0.875ZM10.5 18.375C8.94248 18.375 7.41993 17.9131 6.12489 17.0478C4.82985 16.1825 3.82049 14.9526 3.22445 13.5136C2.62841 12.0747 2.47246 10.4913 2.77632 8.96366C3.08018 7.43606 3.8302 6.03287 4.93154 4.93153C6.03288 3.8302 7.43607 3.08017 8.96367 2.77632C10.4913 2.47246 12.0747 2.62841 13.5136 3.22445C14.9526 3.82049 16.1825 4.82985 17.0478 6.12488C17.9131 7.41992 18.375 8.94247 18.375 10.5C18.3725 12.5878 17.542 14.5894 16.0657 16.0657C14.5894 17.5419 12.5878 18.3725 10.5 18.375ZM11.375 14.4375V16.1875H9.625V14.4375H11.375ZM14 8.3125C14.001 8.83726 13.8834 9.35547 13.6562 9.82847C13.4289 10.3015 13.0978 10.7171 12.6875 11.0442C12.0248 11.5578 11.5766 12.2994 11.4301 13.125H9.65213C9.7295 12.4504 9.94116 11.7981 10.2746 11.2066C10.6081 10.6151 11.0566 10.0964 11.5938 9.681C11.8093 9.50848 11.981 9.28741 12.0948 9.03584C12.2085 8.78428 12.2612 8.50937 12.2484 8.23357C12.2356 7.95778 12.1577 7.68892 12.0211 7.44898C11.8845 7.20903 11.6931 7.00481 11.4625 6.853C11.2055 6.685 10.9097 6.58555 10.6034 6.56411C10.2971 6.54267 9.99043 6.59995 9.7125 6.7305C9.41605 6.87259 9.16726 7.09775 8.99639 7.37861C8.82552 7.65946 8.73992 7.98391 8.75 8.3125C8.75 8.54456 8.65782 8.76712 8.49372 8.93122C8.32963 9.09531 8.10707 9.1875 7.875 9.1875C7.64294 9.1875 7.42038 9.09531 7.25629 8.93122C7.09219 8.76712 7 8.54456 7 8.3125C6.98699 7.64001 7.17254 6.9786 7.53345 6.41101C7.89436 5.84342 8.41461 5.39484 9.02913 5.12138C9.57386 4.87793 10.1711 4.77557 10.7658 4.82374C11.3605 4.87191 11.9336 5.06906 12.432 5.397C12.9136 5.71584 13.3089 6.14894 13.5825 6.65765C13.8561 7.16636 13.9995 7.73488 14 8.3125Z" fill="#1B1B1B"/>
</svg>
